M48
; DRILL file {KiCad 8.0.5} date 2024-10-06T10:49:03-0500
; FORMAT={-:-/ absolute / inch / decimal}
; #@! TF.CreationDate,2024-10-06T10:49:03-05:00
; #@! TF.GenerationSoftware,Kicad,Pcbnew,8.0.5
; #@! TF.FileFunction,Plated,1,2,PTH
FMAT,2
INCH
; #@! TA.AperFunction,Plated,PTH,ComponentDrill
T1C0.0295
; #@! TA.AperFunction,Plated,PTH,ComponentDrill
T2C0.0315
; #@! TA.AperFunction,Plated,PTH,ComponentDrill
T3C0.0394
%
G90
G05
T1
X7.7622Y-3.7059
X7.7622Y-3.7559
X7.7622Y-3.8059
T2
X7.2598Y-3.5984
X7.3031Y-4.0007
X7.3031Y-4.0991
X7.3583Y-3.5984
X7.5551Y-3.1976
X7.5551Y-3.5976
X7.5551Y-3.7559
X7.5551Y-4.1559
X7.7638Y-3.1976
X7.7638Y-3.5976
X7.7677Y-3.9299
X7.7677Y-4.3299
X8.0198Y-3.326
X8.0862Y-3.9303
X8.0862Y-4.3303
X8.0902Y-3.685
X8.1182Y-3.326
X8.1902Y-3.685
X8.2827Y-3.9299
X8.2827Y-4.3299
X8.2902Y-3.685
T3
X7.2262Y-3.1984
X7.2557Y-3.8201
X7.3262Y-3.1984
X7.3557Y-3.8201
X8.439Y-3.325
X8.439Y-3.425
M30
